<svg width="294" height="325" viewBox="0 0 294 325" fill="none" xmlns="http://www.w3.org/2000/svg">
<path d="M278 146.204C278 217.633 196.183 307.871 147.092 307.871C98.0013 307.871 16.1836 217.633 16.1836 146.204C16.1836 74.7756 74.7932 16.8711 147.092 16.8711C219.391 16.8711 278 74.7756 278 146.204Z" fill="#D5C1FE"/>
<path d="M278 146.204C278 74.7754 219.39 16.8711 147.092 16.8711C74.7933 16.8712 16.1838 74.7755 16.1836 146.204C16.1836 217.633 98.0012 307.871 147.092 307.871C196.182 307.871 278 217.633 278 146.204ZM294 146.204C294 187.264 270.959 231.25 243.18 264.146C229.077 280.846 213.124 295.461 197.043 306.027C181.288 316.379 163.843 323.871 147.092 323.871C130.341 323.871 112.896 316.379 97.1416 306.027C81.0602 295.461 65.1074 280.846 51.0049 264.146C23.2251 231.25 0.183594 187.264 0.183594 146.204C0.183777 65.7569 66.1399 0.871151 147.092 0.871094C228.044 0.871094 294 65.7568 294 146.204Z" fill="black"/>
<path d="M177.133 122.58C189.885 118.424 217.197 116.217 226.138 142.352C235.078 168.486 213.241 181.899 201.205 185.338C210.805 188.921 227.341 201.331 216.682 222.307C203.356 248.528 175.845 243.371 165.099 244.66C157.344 245.59 123.36 279.232 108.887 294.545C72.1651 271.714 33.036 223.008 20.3849 175.926C36.1152 160.071 54.3705 140.298 55.0532 134.614C56.3426 123.868 51.1849 96.3568 77.4058 83.0314C98.3819 72.3719 110.791 88.9072 114.374 98.5077C117.814 86.4712 131.227 64.6344 157.361 73.5753C183.496 82.5163 181.288 109.827 177.133 122.58Z" fill="#F19B44"/>
<path d="M206.655 105.52C220.833 108.783 234.78 118.185 241.278 137.178C247.649 155.799 243.065 171.47 233.856 182.575C232.391 184.342 230.827 185.97 229.204 187.47C229.463 187.842 229.719 188.219 229.968 188.603C237.13 199.651 238.814 214.082 230.947 229.562C221.618 247.92 206.74 255.557 193.324 258.474C186.92 259.866 180.886 260.194 176.22 260.311C172.467 260.405 170.364 260.391 168.874 260.433C167.633 261.242 165.88 262.528 163.625 264.347C158.895 268.161 152.995 273.457 146.803 279.306C138.334 287.303 129.767 295.904 123.586 302.325C118.779 300.252 113.856 297.638 108.89 294.55C123.363 279.237 157.345 245.597 165.101 244.666C175.763 243.386 202.929 248.454 216.369 222.922L216.683 222.314C227.343 201.337 210.807 188.927 201.207 185.344C213.149 181.931 234.74 168.701 226.343 142.967L226.14 142.358C217.199 116.223 189.887 118.43 177.134 122.585C181.29 109.833 183.498 82.5221 157.363 73.5811L156.753 73.3767C131.019 64.9809 117.789 86.5719 114.377 98.5141C110.794 88.9136 98.3835 72.3778 77.4068 83.0379L76.7985 83.3521C51.2668 96.7914 56.3343 123.958 55.055 134.62C54.3722 140.304 36.1172 160.077 20.3867 175.931C18.6547 169.486 17.4179 163.071 16.7524 156.757C17.9801 155.48 19.2053 154.199 20.415 152.918C26.2633 146.725 31.5601 140.826 35.3741 136.096C37.1926 133.84 38.4799 132.087 39.2887 130.846C39.3299 129.356 39.3157 127.253 39.4095 123.5C39.5262 118.835 39.8549 112.8 41.247 106.397C44.1637 92.9803 51.8003 78.1031 70.1583 68.7735C85.6387 60.9066 100.07 62.5903 111.118 69.7527C111.502 70.0016 111.879 70.2576 112.25 70.5164C113.75 68.8942 115.378 67.3305 117.145 65.865C128.25 56.6563 143.921 52.0714 162.542 58.4418L162.543 58.4425C181.536 64.9406 190.937 78.8882 194.2 93.0659C195.056 96.7873 195.495 100.5 195.624 104.098C199.221 104.226 202.934 104.664 206.655 105.52Z" fill="black"/>
<path d="M137.167 156.554C151.648 171.035 151.581 194.581 137.073 209.089C122.566 223.596 110.844 201.79 101.387 192.333C91.9304 182.876 70.1231 171.154 84.6307 156.646C99.1383 142.139 122.685 142.072 137.167 156.554ZM99.7576 101.962C105.455 107.659 105.456 116.896 99.7582 122.594C94.0606 128.292 84.8227 128.292 79.1251 122.594C73.4275 116.896 73.4275 107.658 79.1251 101.961C84.8227 96.2635 94.06 96.264 99.7576 101.962ZM197.77 199.966C203.467 205.663 203.467 214.901 197.769 220.598C192.072 226.295 182.834 226.296 177.137 220.599C171.439 214.901 171.439 205.663 177.137 199.966C182.834 194.268 192.072 194.268 197.77 199.966ZM184.887 141.339C192.738 136.807 202.367 138.79 206.396 145.768C210.425 152.746 207.327 162.078 199.477 166.61C191.626 171.142 181.996 169.16 177.967 162.182C173.939 155.203 177.037 145.872 184.887 141.339ZM153.963 93.3299C160.941 97.3587 162.924 106.989 158.391 114.839C153.859 122.69 144.528 125.787 137.55 121.758C130.572 117.73 128.589 108.101 133.121 100.25C137.654 92.4001 146.985 89.3013 153.963 93.3299Z" fill="white" fill-opacity="0.51"/>
</svg>
