<svg width="369" height="284" viewBox="0 0 369 284" fill="none" xmlns="http://www.w3.org/2000/svg">
<path d="M46.0005 128.392C31.0221 131.527 13.3136 137.543 3.70573 142.347C1.43412 143.483 0.366827 146.049 0.915038 148.529L9.52767 187.49C10.0452 189.831 12.4918 191.194 14.7548 190.402L18.2703 189.171C19.4374 188.763 20.6895 189.485 20.9011 190.703C22.1401 197.834 26.0065 219.936 29.0006 235.391C31.495 248.267 35.3115 266.48 37.4356 276.525C38.2335 280.297 42.376 282.424 46.0282 281.187C56.8262 277.53 75.2763 272.77 92.5005 270.891C111.724 268.793 139.347 270.234 156.354 271.743C159.907 272.058 163.001 269.278 163.001 265.711V258.391L170.804 270.53C171.549 271.688 172.836 272.381 174.213 272.366L211.949 271.952C215.082 271.917 217.662 269.478 217.772 266.346C218.001 259.832 218.001 252.628 218.001 248.391C222.001 247.591 229.001 243.057 232.001 240.891L231.596 265.139C231.543 268.354 234.026 271.039 237.236 271.23C253.159 272.178 280.332 273.832 295.501 274.891C310.825 275.96 340.254 280.284 357.334 282.982C360.509 283.484 363.514 281.407 364.166 278.259L367.907 260.175C368.568 256.981 367.085 253.941 364.005 252.869C362.774 252.441 361.285 251.948 359.501 251.391C354.586 249.855 346.212 248.614 340.174 247.894C337.726 247.602 336.063 245.227 336.679 242.84C339.34 232.52 345.903 206.846 350.001 188.891C352.902 176.176 356.732 157.845 358.293 150.316C358.7 148.352 357.586 146.4 355.667 145.817C350.672 144.302 342.47 142.145 334.001 140.891C320.501 138.891 280.001 134.391 268.501 134.391C257.001 134.391 114.501 146.392 100.001 135.892C85.5005 125.392 67.5005 123.892 46.0005 128.392Z" fill="#2C1014"/>
<g filter="url(#filter0_i_3938_991)">
<path d="M267.474 141.777C284.293 143.256 306.819 145.328 313.502 146.282C321.902 147.482 335.335 149.782 341.002 150.782L334.502 182.282L315.002 177.782C315.002 177.782 312.819 206.147 311.002 224.282C308.097 253.282 306.002 268.282 306.002 268.282L280.002 265.282C280.002 265.282 281.506 236.918 283.002 218.782C284.454 201.181 287.502 173.782 287.502 173.782L250.002 171.282L250.703 167.716C256.969 159.773 262.74 150.988 267.474 141.777ZM275.502 207.282H257.502V216.282H270.502L270.002 232.782L258.002 232.282L257.502 243.282L273.502 243.782L272.502 264.782L239.002 263.282L241.502 187.782L276.502 187.282L275.502 207.282ZM141.008 190.263C144.879 193.55 148.823 196.529 152.779 199.129C154.788 200.449 156.839 201.695 158.921 202.848L172.002 227.782V208.54C176.361 209.888 180.745 210.66 185.06 210.66C186.352 210.66 187.651 210.589 188.954 210.456L188.002 264.282H176.002L156.002 232.782L155.002 264.282L142.002 263.782L141.008 190.263ZM229.831 189.646C233.139 192.173 237.851 198.451 237.502 209.282C237.002 224.782 233.002 230.282 225.502 235.282C219.502 239.282 213.002 241.282 210.502 241.782L210.002 264.282H194.002L194.924 209.421C202.579 207.572 210.227 203.803 217.341 199.129C221.542 196.368 225.73 193.179 229.831 189.646ZM210.502 223.782C214.169 222.282 221.002 218.396 221.002 212.782C221.002 205.282 214.002 204.282 210.502 204.282V223.782Z" fill="#FCB062"/>
</g>
<g filter="url(#filter1_i_3938_991)">
<path d="M100.199 211.98C100.199 211.98 107.366 207.819 111.99 198.803C115.501 191.955 117.769 180.539 117.769 180.539L130.947 263.303H109.678L100.199 211.98Z" fill="#FCB062"/>
</g>
<path d="M130.675 263.071H109.87L100.455 212.094C100.504 212.063 100.567 212.026 100.641 211.979C100.849 211.845 101.15 211.645 101.525 211.377C102.276 210.841 103.324 210.033 104.517 208.942C106.901 206.761 109.868 203.446 112.195 198.908C113.963 195.462 115.412 190.876 116.419 187.163C116.923 185.305 117.317 183.661 117.585 182.481C117.642 182.232 117.69 182.002 117.735 181.796L130.675 263.071Z" stroke="#F9D672" stroke-width="0.462366"/>
<path d="M355.679 259.947C357.367 260.214 358.646 260.967 359.516 262.206C360.388 263.428 360.674 264.993 360.371 266.903L359.055 275.214L355.474 274.647L356.714 266.822C356.892 265.696 356.747 264.791 356.279 264.105C355.814 263.402 355.095 262.974 354.123 262.82C353.134 262.663 352.301 262.846 351.625 263.368C350.967 263.875 350.55 264.692 350.372 265.817L349.132 273.643L345.552 273.076L347.796 258.908L351.376 259.475L351.097 261.239C351.671 260.701 352.352 260.32 353.139 260.095C353.946 259.856 354.793 259.806 355.679 259.947Z" fill="white"/>
<path d="M344.265 258.35L342.021 272.517L338.415 271.946L338.698 270.156C338.141 270.697 337.459 271.087 336.652 271.326C335.865 271.551 335.036 271.595 334.167 271.457C333.059 271.281 332.115 270.896 331.335 270.301C330.558 269.688 329.994 268.891 329.643 267.909C329.311 266.913 329.245 265.784 329.445 264.522L330.762 256.211L334.342 256.778L333.107 264.578C332.928 265.703 333.072 266.617 333.537 267.32C334.006 268.006 334.725 268.426 335.697 268.58C336.686 268.736 337.509 268.561 338.166 268.053C338.826 267.529 339.245 266.704 339.423 265.578L340.659 257.778L344.265 258.35Z" fill="white"/>
<path d="M328.103 258.805L325.623 258.412L323.845 269.639L320.213 269.064L321.991 257.837L320.38 257.582L320.846 254.641L322.457 254.896L322.571 254.18C322.846 252.441 323.543 251.241 324.661 250.579C325.78 249.917 327.332 249.77 329.319 250.137L328.841 253.155C327.974 253 327.346 253.049 326.957 253.302C326.567 253.555 326.309 254.082 326.182 254.883L326.089 255.471L328.569 255.864L328.103 258.805Z" fill="white"/>
<path d="M314.744 268.379C314.096 268.276 313.59 267.995 313.226 267.535C312.882 267.061 312.757 266.526 312.851 265.929C312.946 265.332 313.229 264.87 313.7 264.543C314.191 264.201 314.761 264.082 315.409 264.184C316.039 264.284 316.527 264.571 316.871 265.045C317.218 265.502 317.345 266.029 317.25 266.626C317.156 267.222 316.871 267.693 316.397 268.037C315.926 268.365 315.375 268.478 314.744 268.379Z" fill="white"/>
<mask id="path-9-inside-1_3938_991" fill="white">
<path d="M20.5 144.281C34.1667 139.115 65.6 130.181 82 135.781C102.5 142.781 113.595 156.781 110.5 182.781C108 203.781 86.5 214.781 69 217.281L78.5 264.281L45 272.781C45 272.781 36.3161 235.103 31.5 209.781C26.7713 184.919 20.5098 144.345 20.5 144.281ZM80.5 175.28C80.4998 166.08 69.4999 162.281 58.5 166.28L63.5 191.28C69.1667 189.78 80.5 184.48 80.5 175.28Z"/>
</mask>
<g filter="url(#filter2_i_3938_991)">
<path d="M20.5 144.281C34.1667 139.115 65.6 130.181 82 135.781C102.5 142.781 113.595 156.781 110.5 182.781C108 203.781 86.5 214.781 69 217.281L78.5 264.281L45 272.781C45 272.781 36.3161 235.103 31.5 209.781C26.7713 184.919 20.5098 144.345 20.5 144.281ZM80.5 175.28C80.4998 166.08 69.4999 162.281 58.5 166.28L63.5 191.28C69.1667 189.78 80.5 184.48 80.5 175.28Z" fill="#FCB062"/>
</g>
<path d="M20.5 144.281L20.3365 143.849L19.9859 143.981L20.043 144.352L20.5 144.281ZM82 135.781L82.1494 135.344L82 135.781ZM110.5 182.781L110.959 182.836L110.5 182.781ZM69 217.281L68.9346 216.824L68.4498 216.893L68.5468 217.373L69 217.281ZM78.5 264.281L78.6137 264.729L79.0404 264.621L78.9532 264.19L78.5 264.281ZM45 272.781L44.5494 272.885L44.6556 273.346L45.1137 273.229L45 272.781ZM31.5 209.781L31.0458 209.868L31.5 209.781ZM80.5 175.28H80.9624V175.28L80.5 175.28ZM58.5 166.28L58.342 165.846L57.9687 165.981L58.0466 166.371L58.5 166.28ZM63.5 191.28L63.0466 191.371L63.143 191.853L63.6183 191.727L63.5 191.28ZM20.5 144.281L20.6635 144.714C27.4757 142.138 38.7244 138.622 50.3102 136.448C61.9193 134.27 73.7732 133.461 81.8506 136.219L82 135.781L82.1494 135.344C73.8268 132.502 61.764 133.359 50.1398 135.539C38.4923 137.724 27.191 141.257 20.3365 143.849L20.5 144.281ZM82 135.781L81.8506 136.219C92.0377 139.697 99.8347 144.897 104.71 152.408C109.585 159.918 111.58 169.8 110.041 182.727L110.5 182.781L110.959 182.836C112.516 169.762 110.51 159.645 105.486 151.905C100.463 144.166 92.4623 138.865 82.1494 135.344L82 135.781ZM110.5 182.781L110.041 182.727C108.81 193.067 102.903 200.962 95.1043 206.594C87.3006 212.23 77.6246 215.582 68.9346 216.824L69 217.281L69.0654 217.739C77.8754 216.48 87.6994 213.083 95.6457 207.344C103.597 201.601 109.69 193.495 110.959 182.836L110.5 182.781ZM69 217.281L68.5468 217.373L78.0468 264.373L78.5 264.281L78.9532 264.19L69.4532 217.19L69 217.281ZM78.5 264.281L78.3863 263.833L44.8863 272.333L45 272.781L45.1137 273.229L78.6137 264.729L78.5 264.281ZM45 272.781C45.4506 272.677 45.4505 272.677 45.4505 272.677C45.4504 272.677 45.4503 272.676 45.4502 272.676C45.4499 272.675 45.4495 272.673 45.449 272.671C45.4479 272.666 45.4464 272.659 45.4443 272.65C45.4401 272.632 45.4338 272.605 45.4255 272.569C45.409 272.497 45.3843 272.389 45.3519 272.248C45.2872 271.966 45.1916 271.549 45.0682 271.01C44.8214 269.93 44.4634 268.36 44.0188 266.396C43.1296 262.469 41.8938 256.969 40.5076 250.677C37.7348 238.093 34.361 222.349 31.9542 209.695L31.5 209.781L31.0458 209.868C33.4551 222.535 36.8313 238.29 39.6045 250.876C40.9912 257.17 42.2274 262.672 43.1169 266.6C43.5617 268.565 43.9198 270.136 44.1667 271.216C44.2902 271.756 44.3858 272.173 44.4507 272.455C44.4831 272.597 44.5078 272.704 44.5243 272.776C44.5326 272.812 44.5389 272.839 44.5431 272.858C44.5452 272.867 44.5468 272.874 44.5479 272.878C44.5484 272.88 44.5488 272.882 44.549 272.883C44.5492 272.884 44.5493 272.884 44.5493 272.885C44.5494 272.885 44.5494 272.885 45 272.781ZM31.5 209.781L31.9542 209.695C27.2273 184.842 20.967 144.276 20.957 144.211L20.5 144.281L20.043 144.352C20.0526 144.414 26.3153 184.996 31.0458 209.868L31.5 209.781ZM80.5 175.28L80.9624 175.28C80.9623 170.455 78.0603 167.055 73.7921 165.4C69.5423 163.751 63.9246 163.816 58.342 165.846L58.5 166.28L58.658 166.715C64.0753 164.745 69.4575 164.71 73.4577 166.262C77.4394 167.806 80.0375 170.906 80.0376 175.28L80.5 175.28ZM58.5 166.28L58.0466 166.371L63.0466 191.371L63.5 191.28L63.9534 191.19L58.9534 166.19L58.5 166.28ZM63.5 191.28L63.6183 191.727C66.4951 190.966 70.803 189.244 74.4028 186.537C77.9987 183.834 80.9624 180.089 80.9624 175.28H80.5H80.0376C80.0376 179.672 77.3347 183.176 73.8472 185.798C70.3637 188.417 66.1716 190.095 63.3817 190.833L63.5 191.28Z" fill="#F9D672" mask="url(#path-9-inside-1_3938_991)"/>
<g filter="url(#filter3_i_3938_991)">
<path d="M343.5 184.781L336.5 182.781L343 151.281C343 151.281 345.489 151.838 347 152.281C348.047 152.588 349.152 153.097 349.834 153.436C350.232 153.634 350.433 154.08 350.335 154.513L343.5 184.781Z" fill="#F7D4B4"/>
</g>
<path d="M343.088 151.403C343.159 151.419 343.262 151.443 343.39 151.473C343.646 151.532 344.005 151.616 344.41 151.713C345.221 151.907 346.219 152.156 346.972 152.377C348.01 152.681 349.109 153.187 349.789 153.525C350.144 153.702 350.325 154.1 350.237 154.491L343.425 184.656L336.616 182.711L343.077 151.4C343.081 151.401 343.084 151.402 343.088 151.403Z" stroke="#CFCFCF" stroke-width="0.2"/>
<path d="M343 151.281L341 150.781L334.5 182.281L336.5 182.781L343 151.281Z" fill="#2C1014"/>
<g filter="url(#filter4_i_3938_991)">
<path d="M16.5 182.281L24.5 179.281L18 145.5C18 145.5 15.5 146.5 13.5 147.281C12.1836 147.795 10.6098 148.519 9.71538 148.94C9.29483 149.138 9.07289 149.602 9.1759 150.055L16.5 182.281Z" fill="#F7D4B4"/>
</g>
<path d="M17.6152 145.762C17.3496 145.868 16.9745 146.017 16.5371 146.19C15.662 146.538 14.5364 146.983 13.5361 147.374C12.2231 147.887 10.6519 148.609 9.75781 149.03C9.3804 149.208 9.18066 149.625 9.27344 150.033L16.5732 182.146L24.3857 179.217L17.9248 145.638C17.8526 145.667 17.7475 145.709 17.6152 145.762Z" stroke="#CFCFCF" stroke-width="0.2"/>
<path d="M18 145.5L20.5 144.281L26 178.781L24.5 179.281L18 145.5Z" fill="#2C1014"/>
<path d="M33.4254 146.109C33.5335 146.165 33.5973 146.267 33.6326 146.377C33.6676 146.487 33.68 146.618 33.6764 146.763C33.669 147.054 33.5972 147.433 33.4739 147.869C33.2266 148.742 32.7628 149.878 32.1427 151.072C31.5225 152.265 30.8593 153.297 30.2863 154.002C30.0006 154.353 29.7319 154.63 29.498 154.803C29.3817 154.889 29.2667 154.955 29.1571 154.989C29.0467 155.023 28.9265 155.03 28.8184 154.973C28.7102 154.917 28.6465 154.815 28.6112 154.705C28.5762 154.596 28.5638 154.464 28.5674 154.319C28.5748 154.028 28.6466 153.649 28.7699 153.214C29.0172 152.34 29.481 151.204 30.1011 150.011C30.7213 148.817 31.3844 147.785 31.9575 147.081C32.2432 146.729 32.5119 146.453 32.7457 146.28C32.8621 146.193 32.9771 146.128 33.0867 146.094C33.1971 146.059 33.3173 146.053 33.4254 146.109Z" fill="#391716" stroke="#FFE87C" stroke-width="0.3"/>
<path d="M203.093 255.261C203.169 255.32 203.204 255.407 203.216 255.49C203.228 255.573 203.22 255.666 203.202 255.762C203.164 255.955 203.073 256.194 202.944 256.46C202.685 256.995 202.257 257.668 201.721 258.358C201.184 259.047 200.636 259.629 200.182 260.011C199.956 260.202 199.746 260.348 199.569 260.433C199.48 260.474 199.392 260.504 199.309 260.513C199.225 260.522 199.133 260.509 199.056 260.45C198.98 260.39 198.945 260.303 198.932 260.22C198.92 260.137 198.928 260.044 198.947 259.949C198.984 259.756 199.075 259.517 199.204 259.251C199.463 258.716 199.892 258.042 200.428 257.352C200.964 256.663 201.512 256.082 201.966 255.699C202.192 255.509 202.402 255.362 202.58 255.278C202.668 255.236 202.756 255.206 202.839 255.197C202.924 255.188 203.016 255.201 203.093 255.261Z" fill="#391716" stroke="#FFE87C" stroke-width="0.3"/>
<path d="M290.249 208.913C290.362 209.032 290.37 209.2 290.34 209.353C290.31 209.51 290.234 209.69 290.127 209.878C289.911 210.257 289.552 210.702 289.103 211.128C288.654 211.554 288.19 211.889 287.801 212.084C287.607 212.181 287.424 212.247 287.265 212.269C287.111 212.29 286.944 212.273 286.831 212.154C286.718 212.035 286.709 211.867 286.739 211.714C286.769 211.557 286.846 211.378 286.953 211.19C287.168 210.811 287.527 210.366 287.976 209.939C288.426 209.513 288.889 209.179 289.279 208.984C289.472 208.887 289.656 208.82 289.814 208.798C289.969 208.777 290.136 208.794 290.249 208.913Z" fill="#391716" stroke="#FFE87C" stroke-width="0.3"/>
<path d="M290.901 212.806C291.004 212.915 291.004 213.066 290.977 213.193C290.949 213.326 290.883 213.477 290.791 213.634C290.606 213.95 290.303 214.323 289.925 214.681C289.548 215.039 289.16 215.322 288.834 215.489C288.673 215.572 288.518 215.632 288.384 215.653C288.255 215.673 288.105 215.664 288.002 215.556C287.9 215.447 287.899 215.297 287.926 215.169C287.954 215.036 288.021 214.885 288.113 214.728C288.297 214.412 288.6 214.04 288.978 213.682C289.355 213.324 289.744 213.04 290.069 212.873C290.231 212.79 290.385 212.731 290.519 212.71C290.648 212.69 290.799 212.698 290.901 212.806Z" fill="#391716" stroke="#FFE87C" stroke-width="0.3"/>
<path d="M200.382 252.843C200.5 252.961 200.486 253.138 200.448 253.278C200.407 253.432 200.319 253.612 200.201 253.805C199.965 254.194 199.583 254.666 199.115 255.132C198.647 255.598 198.174 255.976 197.784 256.212C197.59 256.329 197.41 256.415 197.257 256.456C197.116 256.493 196.939 256.506 196.821 256.388C196.704 256.269 196.718 256.093 196.756 255.953C196.797 255.799 196.884 255.619 197.001 255.426C197.238 255.037 197.619 254.565 198.087 254.099C198.555 253.633 199.029 253.254 199.419 253.019C199.613 252.902 199.794 252.816 199.947 252.775C200.088 252.738 200.264 252.724 200.382 252.843Z" fill="#391716" stroke="#FFE87C" stroke-width="0.3"/>
<circle cx="30.5" cy="175.281" r="1.65" fill="#391716" stroke="#FFE87C" stroke-width="0.3"/>
<circle cx="335.5" cy="157.281" r="1.65" fill="#391716" stroke="#FFE87C" stroke-width="0.3"/>
<circle cx="331.5" cy="175.281" r="1.65" fill="#391716" stroke="#FFE87C" stroke-width="0.3"/>
<path d="M269.654 94.8445C269.654 141.006 216.779 199.323 185.054 199.323C153.329 199.323 100.453 141.006 100.453 94.8445C100.453 48.683 138.33 11.2617 185.054 11.2617C231.777 11.2617 269.654 48.683 269.654 94.8445Z" fill="#D5C1FE"/>
<path d="M269.658 94.8407C269.658 48.6793 231.781 11.2581 185.058 11.2581C138.334 11.2581 100.457 48.6793 100.457 94.8407C100.457 141.002 153.333 199.319 185.058 199.319C216.783 199.319 269.658 141.002 269.658 94.8407ZM279.999 94.8407C279.999 121.376 265.108 149.803 247.155 171.062C238.042 181.854 227.732 191.299 217.339 198.128C207.158 204.818 195.884 209.659 185.058 209.659C174.232 209.659 162.959 204.818 152.777 198.128C142.384 191.299 132.075 181.854 122.961 171.062C105.008 149.803 90.1172 121.376 90.1172 94.8407C90.1173 42.851 132.742 0.918006 185.058 0.917969C237.374 0.917969 279.998 42.8509 279.999 94.8407Z" fill="#2A0E14"/>
<path d="M204.466 79.5719C212.708 76.8865 230.358 75.4598 236.136 92.3497C241.914 109.239 227.802 117.907 220.023 120.13C226.227 122.445 236.914 130.465 230.025 144.022C221.413 160.967 203.634 157.634 196.689 158.467C191.678 159.069 169.715 180.81 160.362 190.706C136.63 175.951 111.343 144.474 103.167 114.047C113.332 103.801 125.13 91.0226 125.571 87.3493C126.405 80.4043 123.071 62.6251 140.017 54.0135C153.573 47.1246 161.593 57.8107 163.908 64.0151C166.131 56.2364 174.799 42.1242 191.689 47.9023C208.578 53.6806 207.152 71.3306 204.466 79.5719Z" fill="#F19B44"/>
<path d="M223.546 68.5462C232.708 70.655 241.721 76.7306 245.921 89.0052C250.038 101.04 247.075 111.167 241.124 118.343C240.177 119.486 239.166 120.538 238.118 121.507C238.285 121.747 238.451 121.991 238.611 122.239C243.24 129.379 244.328 138.705 239.244 148.709C233.215 160.573 223.6 165.509 214.93 167.394C210.792 168.293 206.892 168.506 203.877 168.581C201.451 168.642 200.092 168.633 199.129 168.66C198.327 169.182 197.194 170.014 195.737 171.189C192.68 173.654 188.867 177.077 184.865 180.856C179.392 186.025 173.856 191.583 169.861 195.733C166.754 194.393 163.573 192.704 160.364 190.708C169.717 180.812 191.679 159.072 196.69 158.47C203.581 157.643 221.138 160.918 229.823 144.418L230.026 144.025C236.915 130.469 226.229 122.448 220.024 120.133C227.742 117.927 241.695 109.377 236.269 92.7467L236.137 92.3526C230.359 75.4627 212.709 76.8894 204.467 79.5747C207.153 71.3334 208.58 53.6834 191.69 47.9052L191.295 47.7731C174.665 42.3472 166.115 56.3006 163.91 64.0184C161.594 57.814 153.574 47.1276 140.018 54.0168L139.624 54.2198C123.124 62.9051 126.399 80.4614 125.572 87.3522C125.131 91.0255 113.334 103.804 103.168 114.05C102.048 109.884 101.249 105.739 100.819 101.658C101.612 100.833 102.404 100.005 103.186 99.1773C106.966 95.1752 110.389 91.3629 112.853 88.3058C114.029 86.8482 114.861 85.7149 115.383 84.9129C115.41 83.9501 115.401 82.5911 115.461 80.166C115.537 77.1509 115.749 73.251 116.649 69.1125C118.534 60.4421 123.469 50.8276 135.333 44.7983C145.337 39.7142 154.664 40.8023 161.804 45.4311C162.052 45.592 162.295 45.7574 162.536 45.9247C163.505 44.8763 164.557 43.8657 165.699 42.9186C172.875 36.9674 183.003 34.0044 195.037 38.1213L195.037 38.1218C207.312 42.3212 213.387 51.335 215.496 60.4974C216.049 62.9024 216.333 65.3019 216.416 67.6269C218.741 67.7098 221.141 67.9928 223.546 68.5462Z" fill="#2C1114"/>
<path d="M178.639 101.531C187.997 110.89 187.954 126.107 178.579 135.482C169.203 144.858 161.628 130.765 155.516 124.654C149.405 118.542 135.311 110.966 144.687 101.591C154.063 92.2152 169.28 92.1722 178.639 101.531ZM154.463 66.2503C158.145 69.9324 158.145 75.902 154.463 79.5842C150.781 83.2663 144.811 83.2663 141.129 79.5842C137.447 75.902 137.447 69.932 141.129 66.2498C144.811 62.5679 150.781 62.5682 154.463 66.2503ZM217.804 129.586C221.486 133.268 221.486 139.238 217.804 142.92C214.122 146.602 208.152 146.602 204.47 142.921C200.788 139.238 200.788 133.268 204.47 129.586C208.152 125.904 214.122 125.904 217.804 129.586ZM209.479 91.6985C214.552 88.7695 220.775 90.0512 223.379 94.5608C225.983 99.0705 223.981 105.101 218.907 108.03C213.834 110.959 207.61 109.678 205.007 105.168C202.403 100.658 204.405 94.6276 209.479 91.6985ZM189.494 60.672C194.003 63.2756 195.285 69.4993 192.356 74.5727C189.427 79.646 183.396 81.6479 178.887 79.0442C174.377 76.4405 173.096 70.2177 176.025 65.1444C178.954 60.0711 184.984 58.0685 189.494 60.672Z" fill="white" fill-opacity="0.51"/>
<defs>
<filter id="filter0_i_3938_991" x="141.008" y="141.777" width="199.992" height="126.504" filterUnits="userSpaceOnUse" color-interpolation-filters="sRGB">
<feFlood flood-opacity="0" result="BackgroundImageFix"/>
<feBlend mode="normal" in="SourceGraphic" in2="BackgroundImageFix" result="shape"/>
<feColorMatrix in="SourceAlpha" type="matrix" values="0 0 0 0 0 0 0 0 0 0 0 0 0 0 0 0 0 0 127 0" result="hardAlpha"/>
<feOffset dx="0.924731" dy="-2.77419"/>
<feComposite in2="hardAlpha" operator="arithmetic" k2="-1" k3="1"/>
<feColorMatrix type="matrix" values="0 0 0 0 0.913725 0 0 0 0 0.588235 0 0 0 0 0.290196 0 0 0 1 0"/>
<feBlend mode="normal" in2="shape" result="effect1_innerShadow_3938_991"/>
</filter>
<filter id="filter1_i_3938_991" x="100.199" y="180.539" width="30.7461" height="82.7617" filterUnits="userSpaceOnUse" color-interpolation-filters="sRGB">
<feFlood flood-opacity="0" result="BackgroundImageFix"/>
<feBlend mode="normal" in="SourceGraphic" in2="BackgroundImageFix" result="shape"/>
<feColorMatrix in="SourceAlpha" type="matrix" values="0 0 0 0 0 0 0 0 0 0 0 0 0 0 0 0 0 0 127 0" result="hardAlpha"/>
<feOffset dx="0.924731" dy="-2.77419"/>
<feComposite in2="hardAlpha" operator="arithmetic" k2="-1" k3="1"/>
<feColorMatrix type="matrix" values="0 0 0 0 0.913725 0 0 0 0 0.588235 0 0 0 0 0.290196 0 0 0 1 0"/>
<feBlend mode="normal" in2="shape" result="effect1_innerShadow_3938_991"/>
</filter>
<filter id="filter2_i_3938_991" x="20.5" y="134" width="90.5117" height="138.781" filterUnits="userSpaceOnUse" color-interpolation-filters="sRGB">
<feFlood flood-opacity="0" result="BackgroundImageFix"/>
<feBlend mode="normal" in="SourceGraphic" in2="BackgroundImageFix" result="shape"/>
<feColorMatrix in="SourceAlpha" type="matrix" values="0 0 0 0 0 0 0 0 0 0 0 0 0 0 0 0 0 0 127 0" result="hardAlpha"/>
<feOffset dx="0.924731" dy="-2.77419"/>
<feComposite in2="hardAlpha" operator="arithmetic" k2="-1" k3="1"/>
<feColorMatrix type="matrix" values="0 0 0 0 0.913725 0 0 0 0 0.588235 0 0 0 0 0.290196 0 0 0 1 0"/>
<feBlend mode="normal" in2="shape" result="effect1_innerShadow_3938_991"/>
</filter>
<filter id="filter3_i_3938_991" x="336.5" y="151.281" width="13.8594" height="33.5" filterUnits="userSpaceOnUse" color-interpolation-filters="sRGB">
<feFlood flood-opacity="0" result="BackgroundImageFix"/>
<feBlend mode="normal" in="SourceGraphic" in2="BackgroundImageFix" result="shape"/>
<feColorMatrix in="SourceAlpha" type="matrix" values="0 0 0 0 0 0 0 0 0 0 0 0 0 0 0 0 0 0 127 0" result="hardAlpha"/>
<feOffset dx="1" dy="-3"/>
<feComposite in2="hardAlpha" operator="arithmetic" k2="-1" k3="1"/>
<feColorMatrix type="matrix" values="0 0 0 0 0.913725 0 0 0 0 0.588235 0 0 0 0 0.290196 0 0 0 1 0"/>
<feBlend mode="normal" in2="shape" result="effect1_innerShadow_3938_991"/>
</filter>
<filter id="filter4_i_3938_991" x="9.15234" y="145.5" width="15.3477" height="36.7812" filterUnits="userSpaceOnUse" color-interpolation-filters="sRGB">
<feFlood flood-opacity="0" result="BackgroundImageFix"/>
<feBlend mode="normal" in="SourceGraphic" in2="BackgroundImageFix" result="shape"/>
<feColorMatrix in="SourceAlpha" type="matrix" values="0 0 0 0 0 0 0 0 0 0 0 0 0 0 0 0 0 0 127 0" result="hardAlpha"/>
<feOffset dx="-1" dy="-3"/>
<feComposite in2="hardAlpha" operator="arithmetic" k2="-1" k3="1"/>
<feColorMatrix type="matrix" values="0 0 0 0 0.913725 0 0 0 0 0.588235 0 0 0 0 0.290196 0 0 0 1 0"/>
<feBlend mode="normal" in2="shape" result="effect1_innerShadow_3938_991"/>
</filter>
</defs>
</svg>
